<mxfile host="app.diagrams.net" modified="2023-05-24T21:25:09.641Z" agent="Mozilla/5.0 (Windows NT 10.0; Win64; x64) AppleWebKit/537.36 (KHTML, like Gecko) Chrome/113.0.0.0 Safari/537.36" etag="6zPtVw38sKO7VotKYamg" version="21.3.3" type="github">
  <diagram id="C5RBs43oDa-KdzZeNtuy" name="Page-1">
    <mxGraphModel dx="1877" dy="541" grid="1" gridSize="10" guides="1" tooltips="1" connect="1" arrows="1" fold="1" page="1" pageScale="1" pageWidth="827" pageHeight="1169" math="0" shadow="0">
      <root>
        <mxCell id="WIyWlLk6GJQsqaUBKTNV-0" />
        <mxCell id="WIyWlLk6GJQsqaUBKTNV-1" parent="WIyWlLk6GJQsqaUBKTNV-0" />
        <mxCell id="zkfFHV4jXpPFQw0GAbJ--0" value="BookManagementSystem" style="swimlane;fontStyle=2;align=center;verticalAlign=top;childLayout=stackLayout;horizontal=1;startSize=26;horizontalStack=0;resizeParent=1;resizeLast=0;collapsible=1;marginBottom=0;rounded=0;shadow=0;strokeWidth=1;" parent="WIyWlLk6GJQsqaUBKTNV-1" vertex="1">
          <mxGeometry x="280" y="230" width="260" height="140" as="geometry">
            <mxRectangle x="230" y="140" width="160" height="26" as="alternateBounds" />
          </mxGeometry>
        </mxCell>
        <mxCell id="ivVqwdtlXKHiIY3Z4oXY-1" value="+ BookManagementSystem()&#xa;+ provide()&#xa;+ checkout(name: String, title: String)&#xa;+ return(name: String, title: String)&#xa;+ searchBooksByTitle(title: String): Book[]&#xa;+ searchBooksByAuthor(author: String): Book[]" style="text;align=left;verticalAlign=top;spacingLeft=4;spacingRight=4;overflow=hidden;rotatable=0;points=[[0,0.5],[1,0.5]];portConstraint=eastwest;" vertex="1" parent="zkfFHV4jXpPFQw0GAbJ--0">
          <mxGeometry y="26" width="260" height="114" as="geometry" />
        </mxCell>
        <mxCell id="ivVqwdtlXKHiIY3Z4oXY-2" value="Library" style="swimlane;fontStyle=2;align=center;verticalAlign=top;childLayout=stackLayout;horizontal=1;startSize=26;horizontalStack=0;resizeParent=1;resizeLast=0;collapsible=1;marginBottom=0;rounded=0;shadow=0;strokeWidth=1;" vertex="1" parent="WIyWlLk6GJQsqaUBKTNV-1">
          <mxGeometry x="280" y="40" width="260" height="170" as="geometry">
            <mxRectangle x="270" y="40" width="160" height="26" as="alternateBounds" />
          </mxGeometry>
        </mxCell>
        <mxCell id="ivVqwdtlXKHiIY3Z4oXY-3" value="- patrons: Patron[] &#xa;" style="text;align=left;verticalAlign=top;spacingLeft=4;spacingRight=4;overflow=hidden;rotatable=0;points=[[0,0.5],[1,0.5]];portConstraint=eastwest;" vertex="1" parent="ivVqwdtlXKHiIY3Z4oXY-2">
          <mxGeometry y="26" width="260" height="24" as="geometry" />
        </mxCell>
        <mxCell id="ivVqwdtlXKHiIY3Z4oXY-38" value="- books: Book[]" style="text;align=left;verticalAlign=top;spacingLeft=4;spacingRight=4;overflow=hidden;rotatable=0;points=[[0,0.5],[1,0.5]];portConstraint=eastwest;" vertex="1" parent="ivVqwdtlXKHiIY3Z4oXY-2">
          <mxGeometry y="50" width="260" height="24" as="geometry" />
        </mxCell>
        <mxCell id="ivVqwdtlXKHiIY3Z4oXY-20" value="" style="line;strokeWidth=1;fillColor=none;align=left;verticalAlign=middle;spacingTop=-1;spacingLeft=3;spacingRight=3;rotatable=0;labelPosition=right;points=[];portConstraint=eastwest;strokeColor=inherit;" vertex="1" parent="ivVqwdtlXKHiIY3Z4oXY-2">
          <mxGeometry y="74" width="260" height="8" as="geometry" />
        </mxCell>
        <mxCell id="ivVqwdtlXKHiIY3Z4oXY-23" value="+ checkOut(patron: Patron, book: Book)&lt;br style=&quot;--tw-border-spacing-x: 0; --tw-border-spacing-y: 0; --tw-translate-x: 0; --tw-translate-y: 0; --tw-rotate: 0; --tw-skew-x: 0; --tw-skew-y: 0; --tw-scale-x: 1; --tw-scale-y: 1; --tw-pan-x: ; --tw-pan-y: ; --tw-pinch-zoom: ; --tw-scroll-snap-strictness: proximity; --tw-ordinal: ; --tw-slashed-zero: ; --tw-numeric-figure: ; --tw-numeric-spacing: ; --tw-numeric-fraction: ; --tw-ring-inset: ; --tw-ring-offset-width: 0px; --tw-ring-offset-color: #fff; --tw-ring-color: rgb(59 130 246 / 0.5); --tw-ring-offset-shadow: 0 0 #0000; --tw-ring-shadow: 0 0 #0000; --tw-shadow: 0 0 #0000; --tw-shadow-colored: 0 0 #0000; --tw-blur: ; --tw-brightness: ; --tw-contrast: ; --tw-grayscale: ; --tw-hue-rotate: ; --tw-invert: ; --tw-saturate: ; --tw-sepia: ; --tw-drop-shadow: ; --tw-backdrop-blur: ; --tw-backdrop-brightness: ; --tw-backdrop-contrast: ; --tw-backdrop-grayscale: ; --tw-backdrop-hue-rotate: ; --tw-backdrop-invert: ; --tw-backdrop-opacity: ; --tw-backdrop-saturate: ; --tw-backdrop-sepia: ; padding: 0px; margin: 0px;&quot;&gt;&lt;span style=&quot;&quot;&gt;+&amp;nbsp;returnBook(patron: Patron, book: Book)&lt;/span&gt;&lt;br&gt;+&amp;nbsp;getAvailableBooks&lt;span style=&quot;background-color: initial;&quot;&gt;(): &lt;/span&gt;&lt;span style=&quot;background-color: initial;&quot; class=&quot;hljs-selector-tag&quot;&gt;Book&lt;/span&gt;&lt;span style=&quot;background-color: initial;&quot; class=&quot;hljs-selector-attr&quot;&gt;[]&lt;br&gt;+&amp;nbsp;&lt;/span&gt;getCheckedOutBooks&lt;span style=&quot;background-color: initial;&quot;&gt;(): &lt;/span&gt;&lt;span style=&quot;background-color: initial;&quot; class=&quot;hljs-selector-tag&quot;&gt;Book&lt;/span&gt;&lt;span style=&quot;background-color: initial;&quot; class=&quot;hljs-selector-attr&quot;&gt;[]&lt;/span&gt;" style="text;strokeColor=none;fillColor=none;align=left;verticalAlign=top;spacingLeft=4;spacingRight=4;overflow=hidden;rotatable=0;points=[[0,0.5],[1,0.5]];portConstraint=eastwest;whiteSpace=wrap;html=1;" vertex="1" parent="ivVqwdtlXKHiIY3Z4oXY-2">
          <mxGeometry y="82" width="260" height="82" as="geometry" />
        </mxCell>
        <mxCell id="ivVqwdtlXKHiIY3Z4oXY-6" value="Book" style="swimlane;fontStyle=2;align=center;verticalAlign=top;childLayout=stackLayout;horizontal=1;startSize=26;horizontalStack=0;resizeParent=1;resizeLast=0;collapsible=1;marginBottom=0;rounded=0;shadow=0;strokeWidth=1;" vertex="1" parent="WIyWlLk6GJQsqaUBKTNV-1">
          <mxGeometry x="-20" y="210" width="280" height="142" as="geometry">
            <mxRectangle x="230" y="140" width="160" height="26" as="alternateBounds" />
          </mxGeometry>
        </mxCell>
        <mxCell id="ivVqwdtlXKHiIY3Z4oXY-7" value="- title: String&#xa;- author: String&#xa;- copies: int" style="text;align=left;verticalAlign=top;spacingLeft=4;spacingRight=4;overflow=hidden;rotatable=0;points=[[0,0.5],[1,0.5]];portConstraint=eastwest;" vertex="1" parent="ivVqwdtlXKHiIY3Z4oXY-6">
          <mxGeometry y="26" width="280" height="54" as="geometry" />
        </mxCell>
        <mxCell id="ivVqwdtlXKHiIY3Z4oXY-24" value="" style="line;strokeWidth=1;fillColor=none;align=left;verticalAlign=middle;spacingTop=-1;spacingLeft=3;spacingRight=3;rotatable=0;labelPosition=right;points=[];portConstraint=eastwest;strokeColor=inherit;" vertex="1" parent="ivVqwdtlXKHiIY3Z4oXY-6">
          <mxGeometry y="80" width="280" height="8" as="geometry" />
        </mxCell>
        <mxCell id="ivVqwdtlXKHiIY3Z4oXY-25" value="+ Book(title: String, author: String, copies: int)&#xa;+ increaseCopies(amount: int)&#xa;+ decreaseCopies(amount: int)" style="text;align=left;verticalAlign=top;spacingLeft=4;spacingRight=4;overflow=hidden;rotatable=0;points=[[0,0.5],[1,0.5]];portConstraint=eastwest;" vertex="1" parent="ivVqwdtlXKHiIY3Z4oXY-6">
          <mxGeometry y="88" width="280" height="54" as="geometry" />
        </mxCell>
        <mxCell id="ivVqwdtlXKHiIY3Z4oXY-8" value="Patron" style="swimlane;fontStyle=2;align=center;verticalAlign=top;childLayout=stackLayout;horizontal=1;startSize=26;horizontalStack=0;resizeParent=1;resizeLast=0;collapsible=1;marginBottom=0;rounded=0;shadow=0;strokeWidth=1;" vertex="1" parent="WIyWlLk6GJQsqaUBKTNV-1">
          <mxGeometry x="560" y="216" width="280" height="130" as="geometry">
            <mxRectangle x="230" y="140" width="160" height="26" as="alternateBounds" />
          </mxGeometry>
        </mxCell>
        <mxCell id="ivVqwdtlXKHiIY3Z4oXY-9" value="- name: String" style="text;align=left;verticalAlign=top;spacingLeft=4;spacingRight=4;overflow=hidden;rotatable=0;points=[[0,0.5],[1,0.5]];portConstraint=eastwest;" vertex="1" parent="ivVqwdtlXKHiIY3Z4oXY-8">
          <mxGeometry y="26" width="280" height="36" as="geometry" />
        </mxCell>
        <mxCell id="ivVqwdtlXKHiIY3Z4oXY-26" value="" style="line;strokeWidth=1;fillColor=none;align=left;verticalAlign=middle;spacingTop=-1;spacingLeft=3;spacingRight=3;rotatable=0;labelPosition=right;points=[];portConstraint=eastwest;strokeColor=inherit;" vertex="1" parent="ivVqwdtlXKHiIY3Z4oXY-8">
          <mxGeometry y="62" width="280" height="8" as="geometry" />
        </mxCell>
        <mxCell id="ivVqwdtlXKHiIY3Z4oXY-27" value="+ Patron(name: String)&#xa;+ getName(): String&#xa;setName(name: String)" style="text;align=left;verticalAlign=top;spacingLeft=4;spacingRight=4;overflow=hidden;rotatable=0;points=[[0,0.5],[1,0.5]];portConstraint=eastwest;" vertex="1" parent="ivVqwdtlXKHiIY3Z4oXY-8">
          <mxGeometry y="70" width="280" height="54" as="geometry" />
        </mxCell>
        <mxCell id="ivVqwdtlXKHiIY3Z4oXY-28" value="TextFile" style="swimlane;fontStyle=2;align=center;verticalAlign=top;childLayout=stackLayout;horizontal=1;startSize=26;horizontalStack=0;resizeParent=1;resizeLast=0;collapsible=1;marginBottom=0;rounded=0;shadow=0;strokeWidth=1;" vertex="1" parent="WIyWlLk6GJQsqaUBKTNV-1">
          <mxGeometry x="280" y="390" width="260" height="130" as="geometry">
            <mxRectangle x="230" y="140" width="160" height="26" as="alternateBounds" />
          </mxGeometry>
        </mxCell>
        <mxCell id="ivVqwdtlXKHiIY3Z4oXY-29" value="- catalog: String" style="text;align=left;verticalAlign=top;spacingLeft=4;spacingRight=4;overflow=hidden;rotatable=0;points=[[0,0.5],[1,0.5]];portConstraint=eastwest;" vertex="1" parent="ivVqwdtlXKHiIY3Z4oXY-28">
          <mxGeometry y="26" width="260" height="36" as="geometry" />
        </mxCell>
        <mxCell id="ivVqwdtlXKHiIY3Z4oXY-30" value="" style="line;strokeWidth=1;fillColor=none;align=left;verticalAlign=middle;spacingTop=-1;spacingLeft=3;spacingRight=3;rotatable=0;labelPosition=right;points=[];portConstraint=eastwest;strokeColor=inherit;" vertex="1" parent="ivVqwdtlXKHiIY3Z4oXY-28">
          <mxGeometry y="62" width="260" height="8" as="geometry" />
        </mxCell>
        <mxCell id="ivVqwdtlXKHiIY3Z4oXY-31" value="+ TextFile(catalog: String)&#xa;+ store() &#xa;+ load()" style="text;align=left;verticalAlign=top;spacingLeft=4;spacingRight=4;overflow=hidden;rotatable=0;points=[[0,0.5],[1,0.5]];portConstraint=eastwest;" vertex="1" parent="ivVqwdtlXKHiIY3Z4oXY-28">
          <mxGeometry y="70" width="260" height="54" as="geometry" />
        </mxCell>
        <mxCell id="ivVqwdtlXKHiIY3Z4oXY-40" style="edgeStyle=orthogonalEdgeStyle;rounded=0;orthogonalLoop=1;jettySize=auto;html=1;exitX=1;exitY=0.5;exitDx=0;exitDy=0;entryX=0.5;entryY=0;entryDx=0;entryDy=0;" edge="1" parent="WIyWlLk6GJQsqaUBKTNV-1" source="ivVqwdtlXKHiIY3Z4oXY-3" target="ivVqwdtlXKHiIY3Z4oXY-8">
          <mxGeometry relative="1" as="geometry" />
        </mxCell>
        <mxCell id="ivVqwdtlXKHiIY3Z4oXY-41" style="edgeStyle=orthogonalEdgeStyle;rounded=0;orthogonalLoop=1;jettySize=auto;html=1;entryX=0.5;entryY=0;entryDx=0;entryDy=0;" edge="1" parent="WIyWlLk6GJQsqaUBKTNV-1" source="ivVqwdtlXKHiIY3Z4oXY-38" target="ivVqwdtlXKHiIY3Z4oXY-6">
          <mxGeometry relative="1" as="geometry" />
        </mxCell>
      </root>
    </mxGraphModel>
  </diagram>
</mxfile>
